<?xml version="1.0" encoding="utf-8"?>
<!DOCTYPE svg PUBLIC "-//W3C//DTD SVG 20010904//EN" "http://www.w3.org/TR/2001/REC-SVG-20010904/DTD/svg10.dtd">
<svg version="1.0" xmlns="http://www.w3.org/2000/svg" width="800px" height="800px" viewBox="0 0 800 800" preserveAspectRatio="xMidYMid meet">
 <g fill="#f5f5f5">
  <path d="M0 400 l0 -400 400 0 400 0 0 400 0 400 -400 0 -400 0 0 -400z"/>
 </g>
 <g fill="#15b7b9">
  <path d="M365 728.5 c-39.1 -4.5 -75 -14.9 -109.1 -31.6 -20.3 -10 -31.2 -16.4 -46.1 -27.1 -46.1 -33.1 -80.9 -73.6 -105.3 -122.8 -17 -34.1 -26.8 -66.1 -32.2 -105 -2.5 -18 -2.5 -67.4 0 -84.9 10.4 -72.4 41.1 -135.6 90.1 -185.9 29.1 -29.8 55.3 -49 91.4 -67.1 36.7 -18.4 75.3 -29.3 118.1 -33.2 16.9 -1.5 54.1 -0.7 71.1 1.6 50.1 6.6 99.1 25.2 140.8 53.3 71.8 48.3 122.8 124.2 139.7 207.9 4.9 24.4 6 36.8 6 67.3 -0.1 31.2 -1.1 41.6 -6.5 67.4 -6.3 29.6 -14.7 53.2 -28.8 81.1 -16.4 32.2 -38.2 61.8 -64.4 87.1 -16.7 16.1 -28.8 25.9 -48.4 39 -40.6 27 -89 45.2 -138.4 52 -16.3 2.2 -61.7 2.7 -78 0.9z m78.8 -12.1 c79 -10.5 150.2 -50.2 203 -113.3 50 -59.6 76.9 -141.6 72.2 -219.6 -3.7 -61.1 -20.7 -112.2 -54.1 -162.1 -38.5 -57.6 -96.7 -102 -162.8 -124.3 -63.6 -21.5 -131.4 -22.3 -197 -2.4 -64.6 19.5 -124.8 63.1 -165.1 119.3 -55 76.9 -73 173.2 -49.5 265.5 24.2 95.4 93.2 176.1 183.2 214.1 54.4 23.1 110.9 30.6 170.1 22.8z"/>
  <path d="M375.5 699.5 c-1.1 -0.2 -6.7 -0.9 -12.5 -1.5 -34.7 -3.9 -78.1 -18 -108.5 -35.2 -75.1 -42.6 -127.9 -112.7 -146.9 -195.1 -5.9 -25.3 -7 -36.6 -7.1 -68.2 0 -30.6 0.9 -40 6.6 -65.5 9.3 -42 30.9 -87 58.4 -121.5 10.6 -13.4 35.6 -38.1 48.5 -48.1 48.9 -37.8 101 -58.3 161 -63.5 18.4 -1.6 51.6 -0.6 68.8 2 77.9 11.9 147.8 53.3 194.9 115.4 27 35.6 45.8 76.4 54.7 118.2 5.1 24.3 6 34.2 6.1 63 0 29 -0.7 36.8 -5.5 60.5 -20.8 104 -96.7 189.8 -198.5 224.7 -13.8 4.7 -35.4 9.9 -51.5 12.4 -10.5 1.6 -19.4 2.2 -40 2.4 -14.6 0.2 -27.4 0.2 -28.5 0z m60.9 -12 c53.7 -7.1 102.9 -28 145.1 -61.8 13.2 -10.6 35.2 -32.7 45.3 -45.4 58.5 -74 77.5 -171.3 51.2 -262 -19.9 -68.3 -66.9 -129.3 -128.9 -166.7 -45.5 -27.6 -100.6 -42.3 -153.9 -41 -61.9 1.4 -115.4 19.3 -165.7 55.2 -13.5 9.7 -23.8 18.8 -38.2 33.6 -55.8 57.4 -85.3 137 -80.4 216.3 3.4 53.9 18.8 100.6 47.7 144.5 21.2 32.2 54.1 64.3 86.5 84.7 40.9 25.5 86.8 40.5 135.4 44.1 14.5 1.1 41.7 0.4 55.9 -1.5z"/>
  <path d="M245.5 507.3 c-8.8 -4.6 -13.6 -13.2 -13.6 -24.4 -0.1 -14 6.4 -24.3 16.9 -26.9 9.4 -2.2 16.6 0.5 22.8 8.7 7.6 9.9 6.6 28.9 -1.9 38.2 -5.2 5.6 -17.6 7.9 -24.2 4.4z m16.5 -4.2 c10.2 -5.4 13.3 -24.9 5.7 -36.1 -4.8 -7.3 -14.8 -9.6 -22.1 -5.1 -10.1 6.3 -12.3 27.2 -3.8 37.3 4.9 5.8 13.6 7.5 20.2 3.9z"/>
  <path d="M310 508.3 c-0.8 -0.3 -2.5 -1.5 -3.7 -2.6 -2.2 -1.9 -2.3 -2.8 -2.3 -14.9 l0 -12.8 -3.9 0 c-2.4 0 -4.1 -0.5 -4.4 -1.4 -0.8 -2 0.2 -2.6 4.5 -2.6 l3.8 0 0 -5.3 c0 -4.9 1.2 -7.7 3.2 -7.7 0.4 0 0.8 2.9 0.8 6.5 l0 6.5 9 0 c8.3 0 9 0.1 9 2 0 1.9 -0.7 2 -9.1 2 l-9.1 0 0.3 12.1 c0.4 10.7 0.6 12.2 2.4 13.6 2.5 1.9 11.5 1.2 15.1 -1.2 2.6 -1.7 4.4 -1.3 4.4 1.1 0 3.5 -14.2 6.8 -20 4.7z"/>
  <path d="M359 506.2 c-3.2 -3.3 -4 -8.4 -1.9 -12.4 1.8 -3.3 8.6 -5.8 16.2 -5.8 l6.7 0 0 -3.4 c0 -5.2 -2.9 -8.1 -8.2 -8.1 -6.5 0.1 -9.8 1.2 -9.8 3.4 0 3.2 -1.1 5.1 -3 5.1 -4.5 0 -2.9 -7.1 2.4 -10.6 3.8 -2.4 12.6 -3 16.9 -0.9 5.4 2.5 6.7 6.3 6.7 19.4 0 12.2 0.8 13.8 5.4 10.7 2 -1.3 2.6 -1.3 3.5 -0.2 1.6 1.9 -3.1 5.6 -7 5.6 -2.7 0 -5.9 -2.2 -5.9 -4.1 0 -0.5 -1.4 0 -3 1.3 -2.2 1.6 -4.8 2.3 -9.5 2.6 -6.1 0.4 -6.6 0.3 -9.5 -2.6z m16.8 -3.2 c2.3 -1 4.2 -2.3 4.3 -2.7 0.4 -3.2 0.4 -7.5 -0.1 -8.3 -0.8 -1.3 -13.9 0.7 -16.7 2.5 -2.9 1.9 -3.2 7.9 -0.5 9.4 2.7 1.6 8.3 1.2 13 -0.9z"/>
  <path d="M482.4 508 c-1.2 -0.4 -3.1 -2.1 -4.3 -3.6 -1.9 -2.4 -2.1 -3.9 -2.1 -14.5 l0 -11.9 -3.5 0 c-2.5 0 -3.5 -0.4 -3.5 -1.5 0 -1.8 3.9 -3.5 8 -3.5 l2.8 0 0.4 14.1 c0.3 13.4 0.4 14.2 2.7 16 2.8 2.3 8.1 2.4 12.4 0.3 6.5 -3.3 6.7 -3.7 6.7 -15.4 l0 -10.6 -3.6 0.4 c-3.1 0.4 -3.5 0.2 -3.2 -1.4 0.2 -1.3 1.6 -2.2 4.5 -2.8 7.3 -1.5 7.3 -1.6 7.3 15.4 l0 15 4 0 c2.8 0 4 0.4 4 1.4 0 1.8 -2.2 2.6 -7.7 2.6 -3.6 0 -4.6 -0.4 -5 -1.9 -0.5 -1.8 -0.7 -1.8 -4.6 0.5 -4.4 2.5 -11.2 3.1 -15.3 1.4z"/>
  <path d="M542.4 507.1 c-13.8 -6.3 -13.8 -26.3 0 -32.7 11.6 -5.4 23.1 -0.8 25.1 9.9 1.2 6.3 0.3 6.7 -16.2 6.7 l-14.5 0 0.6 3.2 c2 10.1 12.4 13.7 23.5 8.2 3.8 -1.9 5.6 -2.3 6.3 -1.6 1.6 1.6 -0.7 4.1 -5.7 6.3 -5.2 2.4 -13.8 2.4 -19.1 0z m20.6 -21.6 c0 -0.9 -0.7 -2.9 -1.5 -4.5 -3.7 -7.1 -18.9 -5.8 -23 2 -0.8 1.6 -1.5 3.1 -1.5 3.5 0 0.3 5.9 0.5 13 0.5 11.1 0 13 -0.2 13 -1.5z"/>
  <path d="M413.7 507.4 c-1.6 -1.7 0.8 -3.4 4.9 -3.4 l4.4 0 0 -13.4 0 -13.5 -3.5 0.6 c-3 0.5 -3.5 0.3 -3.5 -1.4 0 -1.6 1 -2.2 5 -3 5.3 -1.1 7 -0.3 7 2.9 0 1.5 0.4 1.5 3.6 -0.7 4 -2.7 8.4 -3.8 13.5 -3.3 3.4 0.3 3.4 0.3 3.4 5.3 0 4.3 -0.3 5 -2 5 -1.5 0 -2.1 -0.8 -2.3 -3.2 -0.4 -3.9 -2.5 -4.3 -8.8 -1.4 -6.5 2.9 -7.4 5 -7.4 16.3 l0 9.8 8 0 c7.3 0 8 0.2 8 2 0 1.9 -0.7 2 -14.8 2 -8.2 0 -15.1 -0.3 -15.5 -0.6z"/>
  <path d="M355 379.5 l0 -2.5 45 0 45 0 0 2.5 0 2.5 -45 0 -45 0 0 -2.5z"/>
  <path d="M390.8 364.1 c-1.2 -1.7 -1.2 -3.4 -0.2 -10.8 0.7 -4.8 1.3 -10.2 1.3 -12 l0.1 -3.2 -9.5 3.4 c-10.7 3.9 -15 4.3 -20.1 1.9 -4.8 -2.3 -6.8 -5.5 -11.5 -18.9 -4.7 -13.5 -4.6 -15.9 0.8 -18.1 5.1 -2.2 7.9 -1.1 14.3 5.7 l5.5 5.9 5.8 -2.1 c3.1 -1.2 5.7 -2.5 5.7 -2.9 0 -0.4 -3.8 -4.4 -8.5 -8.8 -10.8 -10.2 -11 -12.5 -1.8 -15.2 l4.2 -1.3 14.6 8.6 14.6 8.7 13.4 -5.1 c17 -6.4 18.8 -6.6 24.5 -3.7 8.3 4.2 11.5 12.9 6.8 18.2 -1.6 1.7 -7.8 4.6 -19.2 8.8 l-16.8 6.3 -5.8 16 c-4.9 13.7 -6.1 16.2 -8.6 17.7 -5.1 2.9 -8 3.2 -9.6 0.9z m9.2 -6.7 c0 -1.4 -2.4 -1 -4.7 0.9 -2.3 1.7 -1.3 2.6 1.7 1.6 1.7 -0.6 3 -1.7 3 -2.5z m7.2 -20.4 c2.7 -7.3 4.7 -13.5 4.5 -13.6 -0.5 -0.6 -11.1 3.7 -12.3 4.9 -0.7 0.7 -1.8 6.4 -2.6 12.8 l-1.4 11.7 3.5 -1.3 c3.4 -1.1 3.7 -1.7 8.3 -14.5z m-23.9 -0.7 c8.2 -3 9.8 -4 10.4 -6.1 0.3 -1.4 0.1 -3.3 -0.6 -4.3 -1.8 -2.9 -1.3 -5.7 1.1 -6.5 1.5 -0.5 2.6 -0.1 3.8 1.3 2.2 2.8 6.8 1.2 7.2 -2.4 0.5 -3.9 3.5 -5.3 5.7 -2.8 0.9 1.1 2.6 2.5 3.6 3.1 1.1 0.6 2.1 2 2.3 3.1 0.3 1.9 1.1 1.7 14.3 -3.2 7.7 -2.9 14.6 -5.9 15.4 -6.5 4.7 -3.9 -1.6 -13 -8.9 -13 -1.4 0 -17.2 5.5 -35.2 12.2 l-32.6 12.2 -2.5 -2.9 c-7.1 -8.3 -9.5 -10.5 -11.9 -10.5 -1.3 0 -2.7 0.7 -3 1.5 -0.7 1.7 5 19 7.8 23.6 2.2 3.5 7.3 6.1 10.8 5.4 1.4 -0.3 6.9 -2.2 12.3 -4.2z m13.6 -27.9 l3.5 -1.5 -8.2 -4.9 -8.3 -5 -3.7 1.6 -3.7 1.6 6 5.4 c6.4 5.9 6.9 5.9 14.4 2.8z m-21.1 -13 c2.7 -0.8 2.9 -2.4 0.3 -2.4 -2.8 0 -5.2 1.1 -4.5 2.1 0.6 1.1 1.1 1.1 4.2 0.3z"/>
  <path d="M379.6 329.8 c-2.7 -3.9 1.8 -8 5.2 -4.6 1.8 1.8 1.4 4.6 -0.7 5.8 -2.6 1.4 -2.8 1.3 -4.5 -1.2z"/>
  <path d="M419 315.5 c-2.6 -3.1 1.3 -8.2 4.4 -5.6 1.9 1.6 2.1 4.2 0.4 5.9 -1.6 1.6 -3.3 1.5 -4.8 -0.3z"/>
  <path d="M432.2 310.8 c-3 -3 0 -7.8 3.7 -5.8 3.2 1.7 2.1 7 -1.4 7 -0.6 0 -1.6 -0.5 -2.3 -1.2z"/>
 </g>
</svg>